<?xml version="1.0" encoding="utf-8"?>
<svg width="1024px" height="1024px" viewBox="0 0 1024 1024" version="1.1" xmlns:xlink="http://www.w3.org/1999/xlink" xmlns="http://www.w3.org/2000/svg">
  <defs>
    <linearGradient x1="0" y1="0" x2="1" y2="1" id="gradient_1">
      <stop offset="0%" stop-color="#4F46E5" />
      <stop offset="100%" stop-color="#1E1B4B" />
    </linearGradient>
    <rect width="1024" height="1024" id="artboard_1" />
    <clipPath id="clip_1">
      <use xlink:href="#artboard_1" clip-rule="evenodd" />
    </clipPath>
  </defs>
  <g id="App-Icon" clip-path="url(#clip_1)">
    <path d="M159.999 0L864.001 0Q867.929 0 871.852 0.192726Q875.775 0.385452 879.684 0.770439Q883.592 1.15543 887.478 1.73175Q891.363 2.30807 895.215 3.07434Q899.067 3.8406 902.878 4.79497Q906.688 5.74933 910.446 6.8895Q914.205 8.02967 917.903 9.35289Q921.601 10.6761 925.23 12.1792Q928.859 13.6823 932.409 15.3616Q935.96 17.0409 939.424 18.8925Q942.888 20.744 946.257 22.7633Q949.626 24.7825 952.892 26.9647Q956.157 29.1468 959.312 31.4866Q962.467 33.8264 965.503 36.3181Q968.539 38.8098 971.45 41.4476Q974.36 44.0853 977.137 46.8626Q979.915 49.64 982.552 52.5502Q985.19 55.4605 987.682 58.4967Q990.174 61.5329 992.513 64.6877Q994.853 67.8425 997.035 71.1083Q999.217 74.3741 1001.24 77.7431Q1003.26 81.112 1005.11 84.576Q1006.96 88.0399 1008.64 91.5906Q1010.32 95.1412 1011.82 98.77Q1013.32 102.399 1014.65 106.097Q1015.97 109.795 1017.11 113.554Q1018.25 117.312 1019.2 121.122Q1020.16 124.932 1020.93 128.785Q1021.69 132.637 1022.27 136.522Q1022.84 140.408 1023.23 144.316Q1023.61 148.225 1023.81 152.148Q1024 156.071 1024 159.999L1024 864.001Q1024 867.929 1023.81 871.852Q1023.61 875.775 1023.23 879.684Q1022.84 883.592 1022.27 887.478Q1021.69 891.363 1020.93 895.215Q1020.16 899.067 1019.2 902.878Q1018.25 906.688 1017.11 910.446Q1015.97 914.205 1014.65 917.903Q1013.32 921.601 1011.82 925.23Q1010.32 928.859 1008.64 932.409Q1006.96 935.96 1005.11 939.424Q1003.26 942.888 1001.24 946.257Q999.217 949.626 997.035 952.892Q994.853 956.157 992.513 959.312Q990.174 962.467 987.682 965.503Q985.19 968.539 982.552 971.45Q979.915 974.36 977.137 977.137Q974.36 979.915 971.45 982.552Q968.539 985.19 965.503 987.682Q962.467 990.174 959.312 992.513Q956.157 994.853 952.892 997.035Q949.626 999.217 946.257 1001.24Q942.888 1003.26 939.424 1005.11Q935.96 1006.96 932.409 1008.64Q928.859 1010.32 925.23 1011.82Q921.601 1013.32 917.903 1014.65Q914.205 1015.97 910.446 1017.11Q906.688 1018.25 902.878 1019.2Q899.067 1020.16 895.215 1020.93Q891.363 1021.69 887.478 1022.27Q883.592 1022.84 879.684 1023.23Q875.775 1023.61 871.852 1023.81Q867.929 1024 864.001 1024L159.999 1024Q156.071 1024 152.148 1023.81Q148.225 1023.61 144.316 1023.23Q140.408 1022.84 136.522 1022.27Q132.637 1021.69 128.785 1020.93Q124.932 1020.16 121.122 1019.2Q117.312 1018.25 113.554 1017.11Q109.795 1015.97 106.097 1014.65Q102.399 1013.32 98.77 1011.82Q95.1412 1010.32 91.5906 1008.64Q88.04 1006.96 84.576 1005.11Q81.112 1003.26 77.7431 1001.24Q74.3741 999.217 71.1083 997.035Q67.8425 994.853 64.6877 992.513Q61.5329 990.174 58.4967 987.682Q55.4605 985.19 52.5502 982.552Q49.64 979.915 46.8626 977.137Q44.0853 974.36 41.4476 971.45Q38.8098 968.539 36.3181 965.503Q33.8264 962.467 31.4866 959.312Q29.1468 956.157 26.9647 952.892Q24.7825 949.626 22.7633 946.257Q20.744 942.888 18.8925 939.424Q17.0409 935.96 15.3616 932.409Q13.6823 928.859 12.1792 925.23Q10.6761 921.601 9.35289 917.903Q8.02967 914.205 6.8895 910.446Q5.74933 906.688 4.79497 902.878Q3.8406 899.067 3.07434 895.215Q2.30807 891.363 1.73175 887.478Q1.15543 883.592 0.770439 879.684Q0.385452 875.775 0.192726 871.852Q0 867.929 0 864.001L0 159.999Q0 156.071 0.192726 152.148Q0.385452 148.225 0.770439 144.316Q1.15543 140.408 1.73175 136.522Q2.30807 132.637 3.07434 128.785Q3.8406 124.932 4.79497 121.122Q5.74933 117.312 6.8895 113.554Q8.02967 109.795 9.35289 106.097Q10.6761 102.399 12.1792 98.77Q13.6823 95.1412 15.3616 91.5906Q17.0409 88.04 18.8925 84.576Q20.744 81.112 22.7633 77.7431Q24.7825 74.3741 26.9647 71.1083Q29.1468 67.8425 31.4866 64.6877Q33.8264 61.5329 36.3181 58.4967Q38.8098 55.4605 41.4476 52.5502Q44.0853 49.64 46.8626 46.8626Q49.64 44.0853 52.5502 41.4476Q55.4605 38.8098 58.4967 36.3181Q61.5329 33.8264 64.6877 31.4866Q67.8425 29.1468 71.1083 26.9647Q74.3741 24.7825 77.7431 22.7633Q81.112 20.744 84.576 18.8925Q88.0399 17.0409 91.5906 15.3616Q95.1412 13.6823 98.77 12.1792Q102.399 10.6761 106.097 9.35289Q109.795 8.02967 113.554 6.8895Q117.312 5.74933 121.122 4.79497Q124.932 3.8406 128.785 3.07434Q132.637 2.30807 136.522 1.73175Q140.408 1.15543 144.316 0.770439Q148.225 0.385452 152.148 0.192726Q156.071 0 159.999 0Z" id="Rectangle-Copy-9" fill="url(#gradient_1)" fill-rule="evenodd" stroke="none" />
    <g id="Group-Copy-6" transform="translate(116 125)">
      <path d="M55.297 772.026C49.5833 772.598 44.2982 771.169 39.4417 767.741C34.5851 764.313 31.5854 759.742 30.4427 754.029C29.3 748.315 30.4427 743.03 33.8709 738.173C37.299 733.317 41.8699 730.317 47.5836 729.174C79.0085 723.461 117.433 718.175 162.856 713.319C208.279 708.462 257.274 704.034 309.839 700.035C362.405 696.035 415.113 692.893 467.964 690.607C520.815 688.322 570.952 686.893 618.375 686.322C665.798 685.751 706.651 686.322 740.933 688.036C747.218 688.607 752.36 691.036 756.359 695.321C760.359 699.606 762.073 704.891 761.502 711.176C760.93 716.89 758.502 721.746 754.217 725.746C749.932 729.746 744.647 731.745 738.362 731.745C704.651 730.031 664.513 729.317 617.947 729.603C571.381 729.888 521.958 731.174 469.678 733.459C417.398 735.745 365.404 738.887 313.696 742.887C261.988 746.886 213.707 751.315 168.855 756.171C124.003 761.028 86.1506 766.313 55.297 772.026L55.297 772.026Z" id="一" fill="#E0E7FF" fill-rule="evenodd" stroke="none" />
      <path d="M739.747 484.684C702.608 493.826 664.041 497.254 624.046 494.969C584.05 492.683 544.912 485.113 506.63 472.257C468.349 459.401 432.924 441.832 400.357 419.549C379.788 404.693 358.362 385.267 336.078 361.27C313.795 337.273 294.083 307.704 276.942 272.566C259.801 237.427 248.66 195.86 243.518 147.866C242.946 141.581 244.517 136.153 248.231 131.582C251.945 127.011 256.659 124.44 262.373 123.868C268.658 122.726 274.086 124.011 278.656 127.725C283.227 131.439 285.798 136.438 286.37 142.723C290.941 185.576 300.797 222.571 315.938 253.711C331.079 284.85 348.506 310.99 368.218 332.13C387.93 353.271 406.927 370.412 425.211 383.553C464.064 410.978 507.487 430.262 555.482 441.403C603.476 452.545 650.614 454.973 696.894 448.688L599.191 318.418C595.763 313.275 594.477 307.847 595.334 302.134C596.191 296.42 598.906 291.563 603.476 287.564C608.047 284.136 613.332 282.85 619.332 283.707C625.331 284.564 630.045 287.278 633.473 291.849L751.745 450.402C756.887 457.259 758.03 464.115 755.173 470.971C752.317 478.399 747.174 482.97 739.747 484.684L739.747 484.684ZM12.9699 437.546C7.25631 434.69 3.39962 430.547 1.39984 425.119C-0.599931 419.691 -0.45709 414.406 1.82836 409.264L107.245 171.863C110.102 166.149 114.244 162.149 119.672 159.864C125.1 157.579 130.385 157.864 135.527 160.721C141.241 163.006 145.24 166.863 147.526 172.291C149.811 177.719 149.526 183.29 146.669 189.003L41.2524 426.405C38.967 432.118 35.1103 435.975 29.6823 437.975C24.2544 439.975 18.6836 439.832 12.9699 437.546L12.9699 437.546ZM756.031 207.858L627.475 97.2996C623.475 93.3001 621.19 88.3006 620.618 82.3013C620.047 76.302 621.761 71.0169 625.761 66.446C629.76 61.8751 634.76 59.4468 640.759 59.1611C646.758 58.8755 651.758 60.7324 655.757 64.7319L784.314 174.434C788.885 178.433 791.313 183.433 791.599 189.432C791.884 195.431 790.028 200.716 786.028 205.287C782.028 209.858 777.172 212.429 771.458 213.001C765.745 213.572 760.602 211.858 756.031 207.858L756.031 207.858ZM480.055 141.009L380.638 36.4496C376.638 31.8787 374.781 26.7365 375.067 21.0228C375.353 15.3092 377.495 10.4526 381.495 6.453C386.066 1.88213 391.208 -0.260482 396.922 0.0252014C402.635 0.310839 407.492 2.73912 411.491 7.31003L510.908 111.012C515.479 115.012 517.765 120.011 517.765 126.011C517.765 132.01 515.479 137.009 510.908 141.009C506.337 145.009 501.195 147.008 495.482 147.008C489.768 147.008 484.626 145.009 480.055 141.009L480.055 141.009Z" id="心" fill="#E0E7FF" stroke="none" />
    </g>
  </g>
</svg>